<svg width="1400" height="900" viewBox="0 0 1400 900" fill="none" xmlns="http://www.w3.org/2000/svg">
  <rect x="20" y="20" width="1360" height="860" rx="24" fill="#F8FAFC" stroke="#CBD5E1" stroke-width="2"/>
  <rect x="60" y="70" width="1280" height="70" rx="12" fill="#E2E8F0"/>
  <rect x="80" y="92" width="180" height="24" rx="6" fill="#94A3B8"/>
  <rect x="1180" y="92" width="140" height="24" rx="6" fill="#94A3B8"/>

  <rect x="60" y="170" width="300" height="670" rx="16" fill="#1E293B"/>
  <rect x="90" y="210" width="240" height="34" rx="8" fill="#334155"/>
  <rect x="90" y="264" width="240" height="34" rx="8" fill="#334155"/>
  <rect x="90" y="318" width="240" height="34" rx="8" fill="#334155"/>
  <rect x="90" y="372" width="240" height="34" rx="8" fill="#334155"/>
  <rect x="90" y="426" width="240" height="34" rx="8" fill="#334155"/>

  <rect x="390" y="170" width="950" height="170" rx="16" fill="#FFFFFF" stroke="#CBD5E1" stroke-width="2"/>
  <rect x="430" y="210" width="200" height="90" rx="12" fill="#DBEAFE" stroke="#3B82F6" stroke-width="2"/>
  <rect x="660" y="210" width="200" height="90" rx="12" fill="#DCFCE7" stroke="#22C55E" stroke-width="2"/>
  <rect x="890" y="210" width="200" height="90" rx="12" fill="#FEF3C7" stroke="#F59E0B" stroke-width="2"/>
  <rect x="1120" y="210" width="180" height="90" rx="12" fill="#FEE2E2" stroke="#EF4444" stroke-width="2"/>

  <rect x="390" y="370" width="470" height="470" rx="16" fill="#FFFFFF" stroke="#CBD5E1" stroke-width="2"/>
  <rect x="430" y="420" width="390" height="28" rx="6" fill="#E2E8F0"/>
  <rect x="430" y="468" width="390" height="28" rx="6" fill="#E2E8F0"/>
  <rect x="430" y="516" width="390" height="28" rx="6" fill="#E2E8F0"/>
  <rect x="430" y="564" width="390" height="28" rx="6" fill="#E2E8F0"/>
  <rect x="430" y="612" width="390" height="28" rx="6" fill="#E2E8F0"/>
  <rect x="430" y="660" width="390" height="28" rx="6" fill="#E2E8F0"/>

  <rect x="890" y="370" width="450" height="220" rx="16" fill="#FFFFFF" stroke="#CBD5E1" stroke-width="2"/>
  <path d="M930 550V435L990 470L1040 420L1100 500L1160 390L1220 460L1290 410V550H930Z" fill="#BFDBFE"/>
  <path d="M930 550V435L990 470L1040 420L1100 500L1160 390L1220 460L1290 410" stroke="#2563EB" stroke-width="4" stroke-linecap="round" stroke-linejoin="round"/>

  <rect x="890" y="620" width="450" height="220" rx="16" fill="#FFFFFF" stroke="#CBD5E1" stroke-width="2"/>
  <rect x="930" y="660" width="70" height="140" rx="8" fill="#93C5FD"/>
  <rect x="1020" y="710" width="70" height="90" rx="8" fill="#FCA5A5"/>
  <rect x="1110" y="680" width="70" height="120" rx="8" fill="#86EFAC"/>
  <rect x="1200" y="640" width="70" height="160" rx="8" fill="#FDE68A"/>
</svg>
