<svg width="1400" height="500" viewBox="0 0 1400 500" fill="none" xmlns="http://www.w3.org/2000/svg">
  <defs>
    <marker id="arrow" markerWidth="12" markerHeight="12" refX="10" refY="6" orient="auto">
      <path d="M1 1L11 6L1 11" stroke="#334155" stroke-width="2" stroke-linecap="round" stroke-linejoin="round"/>
    </marker>
  </defs>

  <rect x="20" y="20" width="1360" height="460" rx="24" fill="#F8FAFC" stroke="#CBD5E1" stroke-width="2"/>
  <text x="70" y="92" fill="#0F172A" font-size="34" font-family="Arial, Helvetica, sans-serif" font-weight="700">
    Property Hierarchy Model
  </text>

  <rect x="80" y="190" width="220" height="130" rx="16" fill="#DBEAFE" stroke="#3B82F6" stroke-width="2"/>
  <text x="130" y="262" fill="#1E3A8A" font-size="28" font-family="Arial, Helvetica, sans-serif" font-weight="700">Property</text>

  <rect x="380" y="190" width="220" height="130" rx="16" fill="#DCFCE7" stroke="#22C55E" stroke-width="2"/>
  <text x="448" y="262" fill="#166534" font-size="28" font-family="Arial, Helvetica, sans-serif" font-weight="700">Floor</text>

  <rect x="680" y="190" width="220" height="130" rx="16" fill="#FEF3C7" stroke="#F59E0B" stroke-width="2"/>
  <text x="742" y="262" fill="#92400E" font-size="28" font-family="Arial, Helvetica, sans-serif" font-weight="700">Room</text>

  <rect x="980" y="190" width="220" height="130" rx="16" fill="#FEE2E2" stroke="#EF4444" stroke-width="2"/>
  <text x="1055" y="262" fill="#7F1D1D" font-size="28" font-family="Arial, Helvetica, sans-serif" font-weight="700">Bed</text>

  <line x1="300" y1="255" x2="380" y2="255" stroke="#334155" stroke-width="3" marker-end="url(#arrow)"/>
  <line x1="600" y1="255" x2="680" y2="255" stroke="#334155" stroke-width="3" marker-end="url(#arrow)"/>
  <line x1="900" y1="255" x2="980" y2="255" stroke="#334155" stroke-width="3" marker-end="url(#arrow)"/>

  <rect x="80" y="360" width="1120" height="80" rx="12" fill="#EEF2FF" stroke="#818CF8" stroke-width="1.8"/>
  <text x="110" y="407" fill="#3730A3" font-size="20" font-family="Arial, Helvetica, sans-serif" font-weight="700">
    Dynamic pricing, occupancy states, and billing flows are mapped at bed level while preserving full hierarchy context.
  </text>
</svg>
