<svg width="1400" height="820" viewBox="0 0 1400 820" fill="none" xmlns="http://www.w3.org/2000/svg">
  <defs>
    <marker id="arrow" markerWidth="12" markerHeight="12" refX="10" refY="6" orient="auto">
      <path d="M1 1L11 6L1 11" stroke="#334155" stroke-width="2" stroke-linecap="round" stroke-linejoin="round"/>
    </marker>
  </defs>

  <rect x="18" y="18" width="1364" height="784" rx="22" fill="#F8FAFC" stroke="#CBD5E1" stroke-width="2"/>
  <text x="70" y="84" fill="#0F172A" font-size="36" font-family="Arial, Helvetica, sans-serif" font-weight="700">
    Threat Modeling - FinTech API
  </text>
  <text x="70" y="122" fill="#475569" font-size="20" font-family="Arial, Helvetica, sans-serif">
    Trust boundaries and high-risk transaction paths
  </text>

  <rect x="120" y="190" width="1160" height="560" rx="20" fill="#FFFFFF" stroke="#94A3B8" stroke-width="2" stroke-dasharray="10 8"/>
  <text x="145" y="230" fill="#334155" font-size="20" font-family="Arial, Helvetica, sans-serif" font-weight="600">
    Internal Trust Zone
  </text>

  <rect x="90" y="310" width="250" height="120" rx="14" fill="#DBEAFE" stroke="#3B82F6" stroke-width="2"/>
  <text x="128" y="365" fill="#1E3A8A" font-size="24" font-family="Arial, Helvetica, sans-serif" font-weight="700">
    Client Apps
  </text>

  <rect x="420" y="280" width="260" height="130" rx="14" fill="#E2E8F0" stroke="#475569" stroke-width="2"/>
  <text x="468" y="340" fill="#0F172A" font-size="24" font-family="Arial, Helvetica, sans-serif" font-weight="700">
    API Gateway
  </text>

  <rect x="770" y="220" width="250" height="120" rx="14" fill="#DCFCE7" stroke="#22C55E" stroke-width="2"/>
  <text x="820" y="275" fill="#166534" font-size="24" font-family="Arial, Helvetica, sans-serif" font-weight="700">
    Auth Service
  </text>

  <rect x="770" y="410" width="250" height="120" rx="14" fill="#FEE2E2" stroke="#EF4444" stroke-width="2"/>
  <text x="790" y="468" fill="#7F1D1D" font-size="24" font-family="Arial, Helvetica, sans-serif" font-weight="700">
    Payment Engine
  </text>

  <rect x="1090" y="315" width="230" height="130" rx="14" fill="#FEF3C7" stroke="#F59E0B" stroke-width="2"/>
  <text x="1128" y="372" fill="#92400E" font-size="24" font-family="Arial, Helvetica, sans-serif" font-weight="700">
    Ledger DB
  </text>

  <line x1="340" y1="370" x2="420" y2="340" stroke="#334155" stroke-width="3" marker-end="url(#arrow)"/>
  <line x1="680" y1="320" x2="770" y2="275" stroke="#334155" stroke-width="3" marker-end="url(#arrow)"/>
  <line x1="680" y1="355" x2="770" y2="455" stroke="#334155" stroke-width="3" marker-end="url(#arrow)"/>
  <line x1="1020" y1="470" x2="1090" y2="390" stroke="#334155" stroke-width="3" marker-end="url(#arrow)"/>
  <line x1="1020" y1="280" x2="1090" y2="350" stroke="#334155" stroke-width="3" marker-end="url(#arrow)"/>

  <circle cx="688" cy="420" r="24" fill="#FEE2E2" stroke="#DC2626" stroke-width="2"/>
  <text x="680" y="428" fill="#991B1B" font-size="22" font-family="Arial, Helvetica, sans-serif" font-weight="700">!</text>
  <text x="725" y="425" fill="#991B1B" font-size="18" font-family="Arial, Helvetica, sans-serif">
    Critical authorization path
  </text>

  <circle cx="1035" cy="340" r="24" fill="#FEF3C7" stroke="#D97706" stroke-width="2"/>
  <text x="1027" y="348" fill="#92400E" font-size="22" font-family="Arial, Helvetica, sans-serif" font-weight="700">!</text>
  <text x="1075" y="340" fill="#92400E" font-size="18" font-family="Arial, Helvetica, sans-serif">
    Compliance-sensitive data flow
  </text>

  <rect x="120" y="620" width="1160" height="95" rx="14" fill="#EEF2FF" stroke="#818CF8" stroke-width="1.8"/>
  <text x="150" y="665" fill="#3730A3" font-size="20" font-family="Arial, Helvetica, sans-serif" font-weight="600">
    Priority actions: tighten scope policies " isolate payment commands " enforce signed audit trails
  </text>
</svg>
