<svg width="1400" height="820" viewBox="0 0 1400 820" fill="none" xmlns="http://www.w3.org/2000/svg">
  <defs>
    <marker id="arrow" markerWidth="12" markerHeight="12" refX="10" refY="6" orient="auto">
      <path d="M1 1L11 6L1 11" stroke="#334155" stroke-width="2" stroke-linecap="round" stroke-linejoin="round"/>
    </marker>
  </defs>

  <rect x="18" y="18" width="1364" height="784" rx="22" fill="#F8FAFC" stroke="#CBD5E1" stroke-width="2"/>
  <text x="70" y="84" fill="#0F172A" font-size="36" font-family="Arial, Helvetica, sans-serif" font-weight="700">
    Manufacturing Computer Vision Pipeline
  </text>
  <text x="70" y="122" fill="#475569" font-size="20" font-family="Arial, Helvetica, sans-serif">
    Secure edge-to-cloud flow for quality inspection
  </text>

  <rect x="90" y="180" width="1220" height="580" rx="18" fill="#FFFFFF" stroke="#94A3B8" stroke-width="2" stroke-dasharray="10 8"/>
  <text x="120" y="220" fill="#334155" font-size="20" font-family="Arial, Helvetica, sans-serif" font-weight="600">
    Operations Domain
  </text>

  <rect x="130" y="300" width="220" height="120" rx="12" fill="#DBEAFE" stroke="#2563EB" stroke-width="2"/>
  <text x="175" y="368" fill="#1E3A8A" font-size="24" font-family="Arial, Helvetica, sans-serif" font-weight="700">
    Cameras
  </text>

  <rect x="430" y="285" width="250" height="145" rx="12" fill="#DCFCE7" stroke="#16A34A" stroke-width="2"/>
  <text x="462" y="350" fill="#166534" font-size="23" font-family="Arial, Helvetica, sans-serif" font-weight="700">
    Edge Inference
  </text>
  <text x="488" y="378" fill="#166534" font-size="17" font-family="Arial, Helvetica, sans-serif">
    Signed models
  </text>

  <rect x="760" y="300" width="250" height="120" rx="12" fill="#FEF3C7" stroke="#D97706" stroke-width="2"/>
  <text x="810" y="365" fill="#92400E" font-size="23" font-family="Arial, Helvetica, sans-serif" font-weight="700">
    Event Bus
  </text>

  <rect x="1080" y="285" width="190" height="145" rx="12" fill="#EDE9FE" stroke="#7C3AED" stroke-width="2"/>
  <text x="1114" y="350" fill="#5B21B6" font-size="22" font-family="Arial, Helvetica, sans-serif" font-weight="700">
    Cloud MLOps
  </text>
  <text x="1128" y="378" fill="#5B21B6" font-size="17" font-family="Arial, Helvetica, sans-serif">
    Registry
  </text>

  <rect x="430" y="530" width="250" height="115" rx="12" fill="#F1F5F9" stroke="#475569" stroke-width="2"/>
  <text x="470" y="595" fill="#0F172A" font-size="22" font-family="Arial, Helvetica, sans-serif" font-weight="700">
    Plant Historian
  </text>

  <rect x="760" y="530" width="250" height="115" rx="12" fill="#F1F5F9" stroke="#475569" stroke-width="2"/>
  <text x="800" y="595" fill="#0F172A" font-size="22" font-family="Arial, Helvetica, sans-serif" font-weight="700">
    Quality APIs
  </text>

  <line x1="350" y1="360" x2="430" y2="360" stroke="#334155" stroke-width="3" marker-end="url(#arrow)"/>
  <line x1="680" y1="360" x2="760" y2="360" stroke="#334155" stroke-width="3" marker-end="url(#arrow)"/>
  <line x1="1010" y1="360" x2="1080" y2="360" stroke="#334155" stroke-width="3" marker-end="url(#arrow)"/>
  <line x1="555" y1="430" x2="555" y2="530" stroke="#334155" stroke-width="3" marker-end="url(#arrow)"/>
  <line x1="885" y1="420" x2="885" y2="530" stroke="#334155" stroke-width="3" marker-end="url(#arrow)"/>
  <line x1="1080" y1="360" x2="680" y2="360" stroke="#334155" stroke-width="2.3" stroke-dasharray="8 8" marker-end="url(#arrow)"/>

  <circle cx="715" cy="360" r="22" fill="#FEE2E2" stroke="#DC2626" stroke-width="2"/>
  <text x="706" y="369" fill="#991B1B" font-size="21" font-family="Arial, Helvetica, sans-serif" font-weight="700">!</text>
  <text x="460" y="704" fill="#991B1B" font-size="18" font-family="Arial, Helvetica, sans-serif">
    Control: signed model promotion blocks tampered artifacts
  </text>

  <rect x="130" y="680" width="1140" height="55" rx="10" fill="#E0F2FE" stroke="#38BDF8" stroke-width="1.8"/>
  <text x="160" y="714" fill="#0C4A6E" font-size="19" font-family="Arial, Helvetica, sans-serif">
    Telemetry + lineage provide auditability from raw image capture to inspection decision
  </text>
</svg>
