<svg width="1400" height="820" viewBox="0 0 1400 820" fill="none" xmlns="http://www.w3.org/2000/svg">
  <defs>
    <marker id="arrow" markerWidth="12" markerHeight="12" refX="10" refY="6" orient="auto">
      <path d="M1 1L11 6L1 11" stroke="#1F2937" stroke-width="2" stroke-linecap="round" stroke-linejoin="round"/>
    </marker>
  </defs>

  <rect x="18" y="18" width="1364" height="784" rx="22" fill="#F8FAFC" stroke="#CBD5E1" stroke-width="2"/>
  <text x="70" y="84" fill="#0F172A" font-size="36" font-family="Arial, Helvetica, sans-serif" font-weight="700">
    Architecture Redesign - AI Edge and Cloud
  </text>

  <rect x="70" y="150" width="560" height="590" rx="18" fill="#FEF2F2" stroke="#FB7185" stroke-width="2"/>
  <text x="95" y="198" fill="#9F1239" font-size="28" font-family="Arial, Helvetica, sans-serif" font-weight="700">
    Before
  </text>

  <rect x="120" y="260" width="210" height="105" rx="12" fill="#FECACA" stroke="#DC2626" stroke-width="2"/>
  <text x="148" y="318" fill="#7F1D1D" font-size="22" font-family="Arial, Helvetica, sans-serif" font-weight="700">
    Line Cameras
  </text>

  <rect x="380" y="250" width="200" height="125" rx="12" fill="#FCA5A5" stroke="#B91C1C" stroke-width="2"/>
  <text x="405" y="318" fill="#7F1D1D" font-size="22" font-family="Arial, Helvetica, sans-serif" font-weight="700">
    PLC Runtime
  </text>
  <text x="417" y="346" fill="#7F1D1D" font-size="16" font-family="Arial, Helvetica, sans-serif">
    Tight coupling
  </text>

  <rect x="250" y="470" width="210" height="110" rx="12" fill="#FEE2E2" stroke="#E11D48" stroke-width="2"/>
  <text x="292" y="532" fill="#881337" font-size="22" font-family="Arial, Helvetica, sans-serif" font-weight="700">
    Legacy DB
  </text>

  <line x1="330" y1="312" x2="380" y2="312" stroke="#7F1D1D" stroke-width="3" marker-end="url(#arrow)"/>
  <line x1="470" y1="375" x2="355" y2="470" stroke="#7F1D1D" stroke-width="3" marker-end="url(#arrow)"/>

  <text x="100" y="650" fill="#9F1239" font-size="18" font-family="Arial, Helvetica, sans-serif">
    Issues: downtime on model updates, no rollback, weak lineage tracking
  </text>

  <rect x="680" y="150" width="650" height="590" rx="18" fill="#ECFDF5" stroke="#34D399" stroke-width="2"/>
  <text x="705" y="198" fill="#065F46" font-size="28" font-family="Arial, Helvetica, sans-serif" font-weight="700">
    After
  </text>

  <rect x="730" y="250" width="180" height="110" rx="12" fill="#BFDBFE" stroke="#2563EB" stroke-width="2"/>
  <text x="772" y="312" fill="#1E3A8A" font-size="21" font-family="Arial, Helvetica, sans-serif" font-weight="700">
    Camera Hub
  </text>

  <rect x="950" y="240" width="210" height="130" rx="12" fill="#DCFCE7" stroke="#16A34A" stroke-width="2"/>
  <text x="978" y="308" fill="#166534" font-size="22" font-family="Arial, Helvetica, sans-serif" font-weight="700">
    Edge Runtime
  </text>
  <text x="997" y="337" fill="#166534" font-size="16" font-family="Arial, Helvetica, sans-serif">
    LKG fallback
  </text>

  <rect x="1190" y="250" width="110" height="110" rx="12" fill="#FEF3C7" stroke="#D97706" stroke-width="2"/>
  <text x="1212" y="312" fill="#92400E" font-size="20" font-family="Arial, Helvetica, sans-serif" font-weight="700">
    MQTT
  </text>

  <rect x="840" y="460" width="220" height="115" rx="12" fill="#EDE9FE" stroke="#7C3AED" stroke-width="2"/>
  <text x="868" y="524" fill="#5B21B6" font-size="21" font-family="Arial, Helvetica, sans-serif" font-weight="700">
    Cloud MLOps
  </text>

  <rect x="1110" y="460" width="180" height="115" rx="12" fill="#F1F5F9" stroke="#475569" stroke-width="2"/>
  <text x="1132" y="524" fill="#0F172A" font-size="21" font-family="Arial, Helvetica, sans-serif" font-weight="700">
    Audit Store
  </text>

  <line x1="910" y1="305" x2="950" y2="305" stroke="#0F172A" stroke-width="3" marker-end="url(#arrow)"/>
  <line x1="1160" y1="305" x2="1190" y2="305" stroke="#0F172A" stroke-width="3" marker-end="url(#arrow)"/>
  <line x1="1245" y1="360" x2="955" y2="460" stroke="#0F172A" stroke-width="3" marker-end="url(#arrow)"/>
  <line x1="1060" y1="520" x2="1110" y2="520" stroke="#0F172A" stroke-width="3" marker-end="url(#arrow)"/>
  <line x1="950" y1="460" x2="950" y2="370" stroke="#0F172A" stroke-width="2.3" stroke-dasharray="8 8" marker-end="url(#arrow)"/>

  <rect x="730" y="640" width="560" height="58" rx="10" fill="#D1FAE5" stroke="#34D399" stroke-width="1.8"/>
  <text x="760" y="675" fill="#065F46" font-size="19" font-family="Arial, Helvetica, sans-serif">
    Outcome: resilient model deployment, observable quality metrics, and secure update flow
  </text>
</svg>
