<svg width="1200" height="630" viewBox="0 0 1200 630" fill="none" xmlns="http://www.w3.org/2000/svg">
  <defs>
    <linearGradient id="bg" x1="0" y1="0" x2="1200" y2="630" gradientUnits="userSpaceOnUse">
      <stop stop-color="#0F172A"/>
      <stop offset="0.5" stop-color="#1E293B"/>
      <stop offset="1" stop-color="#064E3B"/>
    </linearGradient>
    <pattern id="grid" width="50" height="50" patternUnits="userSpaceOnUse">
      <path d="M 50 0 L 0 0 0 50" fill="none" stroke="rgba(255,255,255,0.06)" stroke-width="1"/>
    </pattern>
  </defs>
  <rect width="1200" height="630" fill="url(#bg)"/>
  <rect width="1200" height="630" fill="url(#grid)"/>

  <rect x="64" y="56" width="220" height="44" rx="22" fill="#10B981" fill-opacity="0.2" stroke="#10B981"/>
  <text x="88" y="84" fill="#A7F3D0" font-family="Arial, Helvetica, sans-serif" font-size="20" font-weight="700">FUTURE BEYOND TECH</text>

  <text x="84" y="182" fill="#F8FAFC" font-family="Georgia, Times New Roman, serif" font-size="52" font-weight="700">Ideas aren&apos;t accidental.</text>
  <text x="84" y="246" fill="#34D399" font-family="Georgia, Times New Roman, serif" font-size="52" font-weight="700">They&apos;re architected.</text>
  <text x="84" y="390" fill="#CBD5E1" font-family="Georgia, Times New Roman, serif" font-size="44" font-style="italic">We engineer what others </text>
  <text x="84" y="444" fill="#FFFFFF" font-family="Georgia, Times New Roman, serif" font-size="44" font-weight="700">imagine.</text>

  <text x="84" y="522" fill="#94A3B8" font-family="Arial, Helvetica, sans-serif" font-size="26"> Feroze Basha, Founder</text>

  <!-- Blueprint / architecture icon (matches Hero) -->
  <g transform="translate(888, 178) scale(2.2)">
    <path d="M9 20l-5.447-2.724A1 1 0 013 16.382V5.618a1 1 0 011.447-.894L9 7m0 13l6-3m-6 3V7m6 10l4.553 2.276A1 1 0 0121 18.382V7.618a1 1 0 01-.553-.894L15 4m0 13V4m0 0L9 7" stroke="#F8FAFC" stroke-width="1.2" fill="none" stroke-linecap="round" stroke-linejoin="round"/>
  </g>
  <text x="1010" y="268" fill="#10B981" font-family="Arial, Helvetica, sans-serif" font-size="48" font-weight="700">&#8594;</text>
  <!-- Launch / lightning icon (matches Hero) -->
  <g transform="translate(1048, 178) scale(2.2)">
    <path d="M13 3v8h7l-9 10v-8H4z" stroke="#6EE7B7" stroke-width="1.5" fill="none" stroke-linecap="round" stroke-linejoin="round"/>
  </g>

  <text x="84" y="588" fill="#64748B" font-family="Arial, Helvetica, sans-serif" font-size="22">futurebeyondtech.com</text>
</svg>
