<svg width="1200" height="630" viewBox="0 0 1200 630" fill="none" xmlns="http://www.w3.org/2000/svg">
  <defs>
    <linearGradient id="bg" x1="0" y1="0" x2="1200" y2="630" gradientUnits="userSpaceOnUse">
      <stop stop-color="#0F172A"/>
      <stop offset="1" stop-color="#052E2B"/>
    </linearGradient>
  </defs>
  <rect width="1200" height="630" fill="url(#bg)"/>
  <rect x="64" y="56" width="220" height="44" rx="22" fill="#10B981" fill-opacity="0.2" stroke="#10B981"/>
  <text x="88" y="84" fill="#A7F3D0" font-family="Arial, Helvetica, sans-serif" font-size="20" font-weight="700">FUTURE BEYOND TECH</text>

  <text x="84" y="182" fill="#F8FAFC" font-family="Georgia, Times New Roman, serif" font-size="56" font-weight="700">
    Newton discovered gravity
  </text>
  <text x="84" y="246" fill="#F8FAFC" font-family="Georgia, Times New Roman, serif" font-size="56" font-weight="700">
    with an apple.
  </text>
  <text x="84" y="318" fill="#34D399" font-family="Georgia, Times New Roman, serif" font-size="56" font-weight="700">
    I built Future Beyond Tech with Apple.
  </text>
  <text x="84" y="390" fill="#CBD5E1" font-family="Georgia, Times New Roman, serif" font-size="48" font-style="italic">
    Some tools don&apos;t just fall &#8212;
  </text>
  <text x="84" y="448" fill="#FFFFFF" font-family="Georgia, Times New Roman, serif" font-size="48" font-weight="700">
    they launch.
  </text>

  <text x="84" y="522" fill="#94A3B8" font-family="Arial, Helvetica, sans-serif" font-size="28">- Feroze Basha</text>

  <circle cx="1036" cy="248" r="64" fill="#FFFFFF" fill-opacity="0.08" stroke="#FFFFFF" stroke-opacity="0.22"/>
  <path d="M1034.34 222.47c4.12-5.32 10.4-8.74 16.53-8.94.8 6.99-1.87 13.93-5.96 18.83-4.03 4.94-10.91 8.58-17.17 7.99-.93-6.9 2.46-13.97 6.6-17.88zM1068.03 322c-4.79 7.03-9.85 13.91-17.56 14.04-7.71.18-10.18-4.49-18.95-4.49-8.8 0-11.49 4.37-18.82 4.69-7.52.31-13.23-7.53-18.08-14.65-9.85-14.23-17.4-40.17-7.33-58.08 5-8.86 13.94-14.49 23.64-14.63 7.34-.12 14.35 5.07 18.95 5.07 4.49 0 13-6.19 21.89-5.29 3.72.16 14.19 1.56 20.92 11.59-.51.35-12.44 7.47-12.31 22.2.2 17.61 15.23 23.48 15.44 23.57-.2.41-2.46 8.37-7.79 16.98z" fill="#F8FAFC"/>

  <text x="1008" y="422" fill="#10B981" font-family="Arial, Helvetica, sans-serif" font-size="58" font-weight="700">-&gt;</text>

  <circle cx="1036" cy="506" r="64" fill="#10B981" fill-opacity="0.16" stroke="#10B981" stroke-opacity="0.4"/>
  <path d="M1037 467v50h42l-52 58v-50h-42l52-58z" fill="#6EE7B7"/>
</svg>
