<svg width="1400" height="760" viewBox="0 0 1400 760" fill="none" xmlns="http://www.w3.org/2000/svg">
  <rect x="12" y="12" width="1376" height="736" rx="24" fill="#F8FAFC" stroke="#CBD5E1" stroke-width="2"/>
  <text x="58" y="82" fill="#0F172A" font-size="36" font-family="Arial, Helvetica, sans-serif" font-weight="700">
    Zentra Architecture Overview
  </text>

  <rect x="60" y="130" width="1280" height="90" rx="14" fill="#0F172A"/>
  <text x="480" y="185" fill="#F8FAFC" font-size="30" font-family="Arial, Helvetica, sans-serif" font-weight="700">
    API Gateway + Policy Engine
  </text>

  <rect x="100" y="280" width="260" height="130" rx="14" fill="#DBEAFE" stroke="#3B82F6"/>
  <text x="145" y="350" fill="#1E3A8A" font-size="26" font-family="Arial, Helvetica, sans-serif" font-weight="700">
    Auth Service
  </text>

  <rect x="410" y="280" width="260" height="130" rx="14" fill="#DCFCE7" stroke="#10B981"/>
  <text x="450" y="350" fill="#065F46" font-size="26" font-family="Arial, Helvetica, sans-serif" font-weight="700">
    Token Service
  </text>

  <rect x="720" y="280" width="260" height="130" rx="14" fill="#EDE9FE" stroke="#8B5CF6"/>
  <text x="760" y="350" fill="#5B21B6" font-size="26" font-family="Arial, Helvetica, sans-serif" font-weight="700">
    MFA Service
  </text>

  <rect x="1030" y="280" width="260" height="130" rx="14" fill="#FEF3C7" stroke="#F59E0B"/>
  <text x="1062" y="350" fill="#92400E" font-size="26" font-family="Arial, Helvetica, sans-serif" font-weight="700">
    RBAC Service
  </text>

  <rect x="250" y="500" width="360" height="150" rx="14" fill="#F1F5F9" stroke="#94A3B8"/>
  <text x="320" y="582" fill="#334155" font-size="28" font-family="Arial, Helvetica, sans-serif" font-weight="700">
    Audit + Compliance Logs
  </text>

  <rect x="790" y="500" width="360" height="150" rx="14" fill="#F1F5F9" stroke="#94A3B8"/>
  <text x="855" y="582" fill="#334155" font-size="28" font-family="Arial, Helvetica, sans-serif" font-weight="700">
    Tenant Data Boundaries
  </text>

  <line x1="700" y1="220" x2="230" y2="280" stroke="#475569" stroke-width="3.5"/>
  <line x1="700" y1="220" x2="540" y2="280" stroke="#475569" stroke-width="3.5"/>
  <line x1="700" y1="220" x2="850" y2="280" stroke="#475569" stroke-width="3.5"/>
  <line x1="700" y1="220" x2="1160" y2="280" stroke="#475569" stroke-width="3.5"/>

  <line x1="230" y1="410" x2="430" y2="500" stroke="#475569" stroke-width="3.5"/>
  <line x1="540" y1="410" x2="430" y2="500" stroke="#475569" stroke-width="3.5"/>
  <line x1="850" y1="410" x2="970" y2="500" stroke="#475569" stroke-width="3.5"/>
  <line x1="1160" y1="410" x2="970" y2="500" stroke="#475569" stroke-width="3.5"/>
</svg>
